<?xml version="1.0" encoding="UTF-8" standalone="no"?>
<svg
   svg:contrastcolor="e6edf3"
   svg:template="Contrast"
   svg:presentation="2.5"
   svg:layouttype="undefined"
   svg:specialfontid="undefined"
   svg:id1="191"
   svg:id2="121"
   svg:companyname="DNSMin"
   svg:companytagline="Built for Big DNS"
   version="1.1"
   viewBox="0 30 145 145"
   id="svg25"
   sodipodi:docname="logo1-icon.svg"
   inkscape:version="1.3.2 (091e20e, 2023-11-25)"
   width="145"
   height="145"
   inkscape:export-filename="logo1-icon.png"
   inkscape:export-xdpi="96"
   inkscape:export-ydpi="96"
   xmlns:inkscape="http://www.inkscape.org/namespaces/inkscape"
   xmlns:sodipodi="http://sodipodi.sourceforge.net/DTD/sodipodi-0.dtd"
   xmlns="http://www.w3.org/2000/svg"
   xmlns:svg="http://www.w3.org/2000/svg">
  <defs
     id="defs25" />
  <sodipodi:namedview
     id="namedview25"
     pagecolor="#ffffff"
     bordercolor="#000000"
     borderopacity="0.25"
     inkscape:showpageshadow="2"
     inkscape:pageopacity="0.0"
     inkscape:pagecheckerboard="0"
     inkscape:deskcolor="#d1d1d1"
     inkscape:zoom="0.57560976"
     inkscape:cx="-155.48729"
     inkscape:cy="-73.834745"
     inkscape:window-width="1312"
     inkscape:window-height="812"
     inkscape:window-x="183"
     inkscape:window-y="67"
     inkscape:window-maximized="0"
     inkscape:current-layer="g24" />
  <g
     fill="none"
     fill-rule="none"
     stroke="none"
     stroke-width="1"
     stroke-linecap="butt"
     stroke-linejoin="miter"
     stroke-miterlimit="10"
     stroke-dasharray="none"
     stroke-dashoffset="0"
     font-family="none"
     font-weight="none"
     font-size="none"
     text-anchor="none"
     style="mix-blend-mode:normal"
     id="g25"
     transform="translate(-216.01947,-138.90118)">
    <g
       data-paper-data="{&quot;isGlobalGroup&quot;:true,&quot;bounds&quot;:{&quot;x&quot;:151.40643449892457,&quot;y&quot;:115.00000000000001,&quot;width&quot;:247.18713100215086,&quot;height&quot;:240}}"
       id="g24">
      <g
         data-paper-data="{&quot;isIcon&quot;:&quot;true&quot;,&quot;iconType&quot;:&quot;icon&quot;,&quot;rawIconId&quot;:&quot;jRYz7DX63pF8LZWog58IRqrEDHlFv2sfkkjVJdPj4Y&quot;,&quot;source&quot;:&quot;ai&quot;,&quot;selectedEffects&quot;:{&quot;container&quot;:&quot;&quot;,&quot;transformation&quot;:&quot;&quot;,&quot;pattern&quot;:&quot;&quot;},&quot;isDetailed&quot;:false,&quot;iconStyle&quot;:&quot;standalone&quot;,&quot;bounds&quot;:{&quot;x&quot;:216.01947214159858,&quot;y&quot;:115.00000000000001,&quot;width&quot;:117.96105571680292,&quot;height&quot;:132.1976358934096},&quot;fillRule&quot;:&quot;evenodd&quot;,&quot;suitableAsStandaloneIcon&quot;:true}"
         fill-rule="evenodd"
         id="g23"
         transform="translate(13.519477,60.302397)">
        <g
           data-paper-data="{&quot;isPathIcon&quot;:true}"
           id="g22">
          <path
             d="m 219.46246,115.14827 c -1.30199,0.326 -2.32299,1.12199 -2.90699,2.26699 -0.502,0.984 -0.536,1.69699 -0.536,11.36695 0,10.24395 0.005,10.32295 0.621,11.22895 0.342,0.501 0.972,1.17099 1.39999,1.48899 0.74,0.547 1.11699,0.577 7.31196,0.577 7.36296,0 7.72996,-0.086 8.85096,-2.08199 0.485,-0.863 0.578,-1.49599 0.578,-3.94098 0,-2.62599 0.061,-2.98299 0.621,-3.62498 l 0.621,-0.712 17.79591,-0.038 c 15.62092,-0.034 18.16691,0.02 20.8309,0.438 6.25497,0.981 10.95795,2.48399 16.21992,5.18497 18.02291,9.24996 28.33686,28.60186 26.11487,48.99976 -1.32999,12.20894 -6.10397,22.06189 -14.67893,30.29385 -7.79096,7.47796 -16.61192,11.78294 -27.71087,13.52393 -2.49999,0.391 -5.81597,0.486 -20.5689,0.585 l -17.58892,0.119 -0.828,-0.828 -0.828,-0.828 v -12.26194 c 0,-11.99794 0.013,-12.27694 0.574,-12.99094 l 0.573,-0.729 17.14992,0.071 17.14992,0.071 0.319,0.69 c 0.604,1.30099 0.179,2.37599 -1.31399,3.33498 -3.08899,1.98199 -4.50798,4.74098 -4.31498,8.39096 0.144,2.73299 1.09499,4.83998 2.98099,6.60397 1.62299,1.51799 3.11298,2.28399 4.99898,2.57199 4.21798,0.643 8.07896,-1.41999 10.20195,-5.45097 0.568,-1.07799 0.654,-1.62399 0.654,-4.13898 0,-2.68699 -0.058,-3.00199 -0.808,-4.35598 -0.777,-1.40299 -1.96299,-2.63599 -4.11398,-4.27798 l -1.009,-0.77 v -3.30798 c 0,-3.81698 -0.329,-4.92498 -1.70799,-5.76597 -0.865,-0.528 -1.37399,-0.557 -9.52495,-0.558 -8.50296,-0.001 -8.61796,-0.009 -9.17396,-0.605 -0.53,-0.569 -0.562,-0.947 -0.562,-6.62197 0,-5.64997 0.033,-6.05097 0.551,-6.56997 0.54,-0.539 0.92,-0.551 17.45892,-0.551 h 1.39099 c 13.92493,-0.001 16.27692,-0.001 16.66692,0.873 0.08,0.179 0.078,0.392 0.076,0.65 0,0.041 -0.001,0.084 -0.001,0.127 0,0.651 -0.358,1.08199 -1.99999,2.41199 -1.56599,1.26799 -2.20099,2.01399 -2.92599,3.43198 -3.31498,6.48797 1.25999,14.02693 8.51296,14.02693 6.48997,0 11.06995,-6.17797 9.21396,-12.42694 -0.623,-2.09799 -1.77299,-3.63398 -3.81298,-5.08898 -0.967,-0.69 -1.83299,-1.44899 -1.92399,-1.68699 -0.091,-0.238 -0.166,-1.79399 -0.166,-3.45798 0,-3.23698 -0.287,-4.24398 -1.43899,-5.05098 -0.528,-0.37 -1.93299,-0.431 -9.89695,-0.431 -8.97296,0 -9.30696,-0.019 -10.00995,-0.572 l -0.726,-0.572 v -17.12092 l -0.939,-0.938 -0.938,-0.938 h -20.0299 c -2.02299,0 -3.85398,0.002 -5.51097,0.004 -12.27794,0.017 -15.01293,0.02 -15.55592,-1.06899 -0.156,-0.312 -0.131,-0.714 -0.1,-1.23099 0.015,-0.243 0.032,-0.512 0.032,-0.808 -10e-4,-2.36899 -0.528,-3.62798 -1.90299,-4.54698 -0.907,-0.606 -1.14599,-0.626 -7.26996,-0.626 -7.02297,0 -7.67296,0.129 -8.83496,1.75799 -0.59,0.826 -0.619,1.14099 -0.693,7.48396 -0.087,7.40896 0.015,7.90796 1.87099,9.17396 0.88,0.601 1.11699,0.621 7.52696,0.621 6.17797,0 6.67697,-0.037 7.52696,-0.563 0.597,-0.368 1.07499,-0.992 1.38599,-1.80599 0.261,-0.684 0.696,-1.36199 0.966,-1.50699 0.297,-0.158 7.34296,-0.263 17.75391,-0.263 16.89392,0 17.27392,0.012 17.81391,0.552 0.515,0.516 0.552,0.92 0.552,6.18797 v 5.63597 l -0.727,0.572 c -0.7,0.551 -1.04499,0.572 -9.25696,0.572 -9.21196,0 -9.58695,0.053 -10.53095,1.49399 -0.398,0.608 -0.454,1.78699 -0.454,9.53295 0,8.47096 -0.023,8.86096 -0.552,9.38995 -0.524,0.524 -0.92,0.552 -7.88996,0.552 -7.16797,0 -7.35796,-0.014 -8.20796,-0.621 -0.848,-0.605 -1.04999,-0.621 -7.95496,-0.621 -6.72497,0 -7.12297,0.029 -7.84596,0.569 -0.419,0.313 -1.018,0.912 -1.33099,1.33099 -0.562,0.753 -0.569,1.02 -0.642,23.79689 -0.005,1.41899 -0.009,2.75499 -0.014,4.01298 -0.062,17.80391 -0.069,20.0909 1.06099,21.0869 0.246,0.218 0.546,0.373 0.912,0.615 l 1.10899,0.735 h 25.54188 c 27.22987,0 28.85886,-0.064 35.47383,-1.38599 8.76796,-1.75199 17.48892,-5.24797 24.34388,-9.75795 7.08797,-4.66398 14.32293,-11.85394 18.63191,-18.51591 5.61597,-8.68396 8.83596,-17.24692 10.32195,-27.45287 0.686,-4.70798 0.686,-14.82493 10e-4,-19.16591 -1.94599,-12.32694 -7.24397,-23.79189 -15.31393,-33.13784 -10.55495,-12.22594 -24.53988,-19.62691 -41.9898,-22.22389 -2.78799,-0.415 -6.33597,-0.48 -29.51786,-0.545 -14.49193,-0.04 -26.72387,0.021 -27.18287,0.136 z"
             fill="#d14124"
             id="path21" />
          <path
             d="m 216.46747,173.22199 c 0.466,-0.981 1.49999,-1.87299 2.44899,-2.10999 0.304,-0.076 3.28398,-0.153 6.62197,-0.17 6.80797,-0.036 7.43396,0.1 8.61696,1.87099 0.607,0.908 0.626,1.13799 0.626,7.44896 -10e-4,7.28896 -0.123,7.86896 -1.90299,9.05896 -0.909,0.607 -1.13799,0.626 -7.47796,0.626 -6.33997,0 -6.56897,-0.019 -7.47696,-0.626 -1.77199,-1.18399 -1.90299,-1.79199 -1.90299,-8.85096 -0.001,-5.24597 0.075,-6.46297 0.447,-7.24797 z"
             fill="#004b87"
             id="path22" />
        </g>
      </g>
    </g>
  </g>
</svg>
