<svg xmlns:mydata="http://www.w3.org/2000/svg" mydata:contrastcolor="e6edf3" mydata:template="Contrast" mydata:presentation="2.5" mydata:layouttype="undefined" mydata:specialfontid="undefined" mydata:id1="191" mydata:id2="121" mydata:companyname="DNSMin" mydata:companytagline="Built for Big DNS" version="1.1" xmlns="http://www.w3.org/2000/svg" xmlns:xlink="http://www.w3.org/1999/xlink" viewBox="0 30 550 410"><g fill="none" fill-rule="none" stroke="none" stroke-width="1" stroke-linecap="butt" stroke-linejoin="miter" stroke-miterlimit="10" stroke-dasharray="" stroke-dashoffset="0" font-family="none" font-weight="none" font-size="none" text-anchor="none" style="mix-blend-mode: normal"><g data-paper-data="{&quot;isGlobalGroup&quot;:true,&quot;bounds&quot;:{&quot;x&quot;:151.40643449892457,&quot;y&quot;:115.00000000000001,&quot;width&quot;:247.18713100215086,&quot;height&quot;:240}}"><g data-paper-data="{&quot;isSecondaryText&quot;:true}" fill="#004b87" fill-rule="nonzero"><path d="M158.74009,340.65362c0.59692,0 1.13957,0.09496 1.62796,0.28489c0.48839,0.18993 0.90894,0.45108 1.26167,0.78345c0.35272,0.33237 0.62405,0.73258 0.81398,1.20062c0.18993,0.46804 0.28489,0.98695 0.28489,1.55673c0,0.69188 -0.11871,1.25149 -0.35612,1.67883c-0.23741,0.42734 -0.52569,0.77667 -0.86485,1.048c0.27133,0.09496 0.54265,0.24419 0.81398,0.44769c0.27133,0.20349 0.51213,0.45447 0.72241,0.75293c0.21028,0.29846 0.37986,0.6444 0.50874,1.03782c0.12888,0.39342 0.19332,0.83433 0.19332,1.32272c0,0.65118 -0.11192,1.22097 -0.33577,1.70936c-0.22384,0.48839 -0.54265,0.90216 -0.95643,1.24132c-0.41377,0.33916 -0.91233,0.59353 -1.49569,0.76311c-0.58335,0.16958 -1.24132,0.25437 -1.9739,0.25437h-6.08449v-14.08183zM158.80114,346.33113c0.17636,0 0.34255,-0.04409 0.49856,-0.13227c0.15601,-0.08818 0.29507,-0.20349 0.41716,-0.34594c0.1221,-0.14245 0.22045,-0.30524 0.29507,-0.48839c0.07461,-0.18315 0.11192,-0.36968 0.11192,-0.55961c0,-0.43412 -0.1221,-0.78345 -0.36629,-1.048c-0.24419,-0.26454 -0.563,-0.39681 -0.95643,-0.39681h-3.17452v2.97102zM155.62662,352.04933h3.58151c0.56979,0 1.03104,-0.13566 1.38376,-0.40699c0.35272,-0.27133 0.52909,-0.66475 0.52909,-1.18027c0,-0.25776 -0.06105,-0.49178 -0.18315,-0.70206c-0.1221,-0.21028 -0.28489,-0.38664 -0.48839,-0.52909c-0.20349,-0.14245 -0.43073,-0.25437 -0.68171,-0.33577c-0.25098,-0.0814 -0.50535,-0.1221 -0.76311,-0.1221h-3.37801z" data-paper-data="{&quot;glyphName&quot;:&quot;B&quot;,&quot;glyphIndex&quot;:0,&quot;firstGlyphOfWord&quot;:true,&quot;word&quot;:1}"></path><path d="M172.58451,349.52599c0,0.35272 0.06105,0.6851 0.18315,0.99712c0.1221,0.31203 0.29168,0.58674 0.50874,0.82415c0.21706,0.23741 0.47143,0.42395 0.76311,0.55961c0.29168,0.13566 0.60709,0.20349 0.94625,0.20349c0.33916,0 0.65457,-0.06783 0.94625,-0.20349c0.29168,-0.13566 0.54944,-0.3222 0.77328,-0.55961c0.22384,-0.23741 0.40021,-0.51213 0.52909,-0.82415c0.12888,-0.31203 0.19332,-0.6444 0.19332,-0.99712v-8.87237h2.76753v8.87237c0,0.75971 -0.13905,1.46516 -0.41716,2.11634c-0.27811,0.65118 -0.65118,1.21419 -1.11922,1.68901c-0.46804,0.47482 -1.02087,0.84789 -1.65848,1.11922c-0.63762,0.27133 -1.30915,0.40699 -2.0146,0.40699c-0.70545,0 -1.3702,-0.13566 -1.99425,-0.40699c-0.62405,-0.27133 -1.17009,-0.6444 -1.63813,-1.11922c-0.46804,-0.47482 -0.84111,-1.03782 -1.11922,-1.68901c-0.27811,-0.65118 -0.41716,-1.35663 -0.41716,-2.11634v-8.87237h2.76753z" data-paper-data="{&quot;glyphName&quot;:&quot;U&quot;,&quot;glyphIndex&quot;:1,&quot;word&quot;:1}"></path><path d="M187.08012,340.65362h2.76753v14.08183h-2.76753z" data-paper-data="{&quot;glyphName&quot;:&quot;I&quot;,&quot;glyphIndex&quot;:2,&quot;word&quot;:1}"></path><path d="M196.91569,340.65362h2.76753v11.355h6.20659v2.72683h-8.97412z" data-paper-data="{&quot;glyphName&quot;:&quot;L&quot;,&quot;glyphIndex&quot;:3,&quot;word&quot;:1}"></path><path d="M215.96958,354.73546h-2.74718v-11.31431h-3.80535v-2.76753h10.31718v2.76753h-3.76465z" data-paper-data="{&quot;glyphName&quot;:&quot;T&quot;,&quot;glyphIndex&quot;:4,&quot;lastGlyphOfWord&quot;:true,&quot;word&quot;:1}"></path><path d="M239.14084,346.37182h3.43906v2.76753h-3.43906v5.5961h-2.76753v-14.08183h8.16014v2.76753h-5.39261z" data-paper-data="{&quot;glyphName&quot;:&quot;F&quot;,&quot;glyphIndex&quot;:5,&quot;firstGlyphOfWord&quot;:true,&quot;word&quot;:2}"></path><path d="M256.07838,340.38908c0.88181,0 1.6924,0.15601 2.43176,0.46804c0.73936,0.31203 1.37359,0.77667 1.90268,1.39394c0.52909,0.61727 0.94286,1.38376 1.24132,2.29949c0.29846,0.91573 0.44769,1.97051 0.44769,3.16434c0,1.19384 -0.14923,2.24522 -0.44769,3.15417c-0.29846,0.90894 -0.71223,1.66866 -1.24132,2.27914c-0.52909,0.61048 -1.16331,1.07174 -1.90268,1.38376c-0.73936,0.31203 -1.54995,0.46804 -2.43176,0.46804c-0.88181,0 -1.68901,-0.15601 -2.42159,-0.46804c-0.73258,-0.31203 -1.36341,-0.77328 -1.8925,-1.38376c-0.52909,-0.61048 -0.94286,-1.3702 -1.24132,-2.27914c-0.29846,-0.90894 -0.44769,-1.96033 -0.44769,-3.15417c0,-1.19384 0.14923,-2.24862 0.44769,-3.16434c0.29846,-0.91573 0.71223,-1.68222 1.24132,-2.29949c0.52909,-0.61727 1.15992,-1.08191 1.8925,-1.39394c0.73258,-0.31203 1.53978,-0.46804 2.42159,-0.46804zM256.07838,343.15661c-1.01747,0 -1.8111,0.37986 -2.38089,1.13957c-0.56979,0.75971 -0.85468,1.89928 -0.85468,3.41871c0,1.51943 0.28489,2.65561 0.85468,3.40854c0.56979,0.75293 1.36341,1.1294 2.38089,1.1294c1.01747,0 1.81789,-0.37647 2.40124,-1.1294c0.58335,-0.75293 0.87503,-1.88911 0.87503,-3.40854c0,-1.51943 -0.29168,-2.659 -0.87503,-3.41871c-0.58335,-0.75971 -1.38376,-1.13957 -2.40124,-1.13957z" data-paper-data="{&quot;glyphName&quot;:&quot;O&quot;,&quot;glyphIndex&quot;:6,&quot;word&quot;:2}"></path><path d="M273.74851,349.52599h-2.29949v5.20946h-2.76753v-14.08183h5.7589c0.70545,0 1.34985,0.09157 1.9332,0.27472c0.58335,0.18315 1.08191,0.45786 1.49569,0.82415c0.41377,0.36629 0.73258,0.81398 0.95643,1.34306c0.22384,0.52909 0.33577,1.13957 0.33577,1.83145c0,0.59692 -0.07122,1.126 -0.21367,1.58726c-0.14245,0.46125 -0.33577,0.86146 -0.57996,1.20062c-0.24419,0.33916 -0.52909,0.61727 -0.85468,0.83433c-0.32559,0.21706 -0.66475,0.38664 -1.01747,0.50874l3.19487,5.6775h-3.25592zM271.44902,346.92126h3.07277c0.61048,0 1.10226,-0.13905 1.47534,-0.41716c0.37307,-0.27811 0.55961,-0.74276 0.55961,-1.39394c0,-0.62405 -0.18654,-1.07174 -0.55961,-1.34306c-0.37307,-0.27133 -0.86485,-0.40699 -1.47534,-0.40699h-3.07277z" data-paper-data="{&quot;glyphName&quot;:&quot;R&quot;,&quot;glyphIndex&quot;:7,&quot;lastGlyphOfWord&quot;:true,&quot;word&quot;:2}"></path><path d="M302.14958,340.65362c0.59692,0 1.13957,0.09496 1.62796,0.28489c0.48839,0.18993 0.90894,0.45108 1.26167,0.78345c0.35272,0.33237 0.62405,0.73258 0.81398,1.20062c0.18993,0.46804 0.28489,0.98695 0.28489,1.55673c0,0.69188 -0.11871,1.25149 -0.35612,1.67883c-0.23741,0.42734 -0.52569,0.77667 -0.86485,1.048c0.27133,0.09496 0.54265,0.24419 0.81398,0.44769c0.27133,0.20349 0.51213,0.45447 0.72241,0.75293c0.21028,0.29846 0.37986,0.6444 0.50874,1.03782c0.12888,0.39342 0.19332,0.83433 0.19332,1.32272c0,0.65118 -0.11192,1.22097 -0.33577,1.70936c-0.22384,0.48839 -0.54265,0.90216 -0.95643,1.24132c-0.41377,0.33916 -0.91233,0.59353 -1.49569,0.76311c-0.58335,0.16958 -1.24132,0.25437 -1.9739,0.25437h-6.08449v-14.08183zM302.21063,346.33113c0.17636,0 0.34255,-0.04409 0.49856,-0.13227c0.15601,-0.08818 0.29507,-0.20349 0.41716,-0.34594c0.1221,-0.14245 0.22045,-0.30524 0.29507,-0.48839c0.07461,-0.18315 0.11192,-0.36968 0.11192,-0.55961c0,-0.43412 -0.1221,-0.78345 -0.36629,-1.048c-0.24419,-0.26454 -0.563,-0.39681 -0.95643,-0.39681h-3.17452v2.97102zM299.03612,352.04933h3.58151c0.56979,0 1.03104,-0.13566 1.38376,-0.40699c0.35272,-0.27133 0.52909,-0.66475 0.52909,-1.18027c0,-0.25776 -0.06105,-0.49178 -0.18315,-0.70206c-0.1221,-0.21028 -0.28489,-0.38664 -0.48839,-0.52909c-0.20349,-0.14245 -0.43073,-0.25437 -0.68171,-0.33577c-0.25098,-0.0814 -0.50535,-0.1221 -0.76311,-0.1221h-3.37801z" data-paper-data="{&quot;glyphName&quot;:&quot;B&quot;,&quot;glyphIndex&quot;:8,&quot;firstGlyphOfWord&quot;:true,&quot;word&quot;:3}"></path><path d="M313.51137,340.65362h2.76753v14.08183h-2.76753z" data-paper-data="{&quot;glyphName&quot;:&quot;I&quot;,&quot;glyphIndex&quot;:9,&quot;word&quot;:3}"></path><path d="M329.49249,347.12476h5.10772v2.19774c0,0.80041 -0.1221,1.54656 -0.36629,2.23844c-0.24419,0.69188 -0.60031,1.29219 -1.06835,1.80093c-0.46804,0.50874 -1.048,0.90894 -1.73988,1.20062c-0.69188,0.29168 -1.48551,0.43751 -2.38089,0.43751c-0.86824,0 -1.67544,-0.15601 -2.42159,-0.46804c-0.74615,-0.31203 -1.39055,-0.77328 -1.9332,-1.38376c-0.54265,-0.61048 -0.96999,-1.3702 -1.28202,-2.27914c-0.31203,-0.90894 -0.46804,-1.96033 -0.46804,-3.15417c0,-1.19384 0.15601,-2.24862 0.46804,-3.16434c0.31203,-0.91573 0.74276,-1.68222 1.29219,-2.29949c0.54944,-0.61727 1.20062,-1.08191 1.95355,-1.39394c0.75293,-0.31203 1.57708,-0.46804 2.47246,-0.46804c1.04461,0 1.98068,0.22045 2.80823,0.66136c0.82755,0.44091 1.54656,1.20401 2.15704,2.28932l-2.03495,1.60761c-0.44769,-0.58335 -0.92929,-1.02765 -1.44481,-1.33289c-0.51552,-0.30524 -1.03782,-0.45786 -1.56691,-0.45786c-1.01747,0 -1.82806,0.37986 -2.43176,1.13957c-0.6037,0.75971 -0.90555,1.89928 -0.90555,3.41871c0,1.51943 0.30185,2.65561 0.90555,3.40854c0.6037,0.75293 1.41429,1.1294 2.43176,1.1294c0.37986,0 0.73258,-0.06105 1.05817,-0.18315c0.32559,-0.1221 0.61048,-0.28489 0.85468,-0.48839c0.24419,-0.20349 0.43412,-0.43751 0.56979,-0.70206c0.13566,-0.26454 0.20349,-0.53926 0.20349,-0.82415v-0.36629h-2.23844z" data-paper-data="{&quot;glyphName&quot;:&quot;G&quot;,&quot;glyphIndex&quot;:10,&quot;lastGlyphOfWord&quot;:true,&quot;word&quot;:3}"></path><path d="M355.79757,340.65362c1.11244,0 2.11634,0.17975 3.01172,0.53926c0.89538,0.35951 1.6517,0.85468 2.26897,1.48551c0.61727,0.63083 1.09209,1.37359 1.42446,2.22827c0.33237,0.85468 0.49856,1.77719 0.49856,2.76753c0,0.99034 -0.16619,1.91285 -0.49856,2.76753c-0.33237,0.85468 -0.81059,1.60082 -1.43464,2.23844c-0.62405,0.63762 -1.38037,1.13957 -2.26897,1.50586c-0.88859,0.36629 -1.88911,0.54944 -3.00155,0.54944h-3.96815v-14.08183zM354.6173,351.98828h1.20062c0.66475,0 1.26845,-0.10853 1.8111,-0.32559c0.54265,-0.21706 1.00391,-0.51552 1.38376,-0.89538c0.37986,-0.37986 0.67153,-0.83094 0.87503,-1.35324c0.20349,-0.5223 0.30524,-1.09548 0.30524,-1.71953c0,-0.63762 -0.10175,-1.22097 -0.30524,-1.75005c-0.20349,-0.52909 -0.49517,-0.98017 -0.87503,-1.35324c-0.37986,-0.37307 -0.84111,-0.66136 -1.38376,-0.86485c-0.54265,-0.20349 -1.14635,-0.30524 -1.8111,-0.30524h-1.20062z" data-paper-data="{&quot;glyphName&quot;:&quot;D&quot;,&quot;glyphIndex&quot;:11,&quot;firstGlyphOfWord&quot;:true,&quot;word&quot;:4}"></path><path d="M377.27304,349.2818v-8.62818h2.76753v14.08183h-2.68613l-5.14842,-8.60783v8.60783h-2.76753v-14.08183h2.68613z" data-paper-data="{&quot;glyphName&quot;:&quot;N&quot;,&quot;glyphIndex&quot;:12,&quot;word&quot;:4}"></path><path d="M391.6669,340.51118c0.61048,0 1.1667,0.06105 1.66866,0.18315c0.50195,0.1221 0.95643,0.2815 1.36341,0.47821c0.40699,0.19671 0.76989,0.42395 1.0887,0.68171c0.31881,0.25776 0.59353,0.5223 0.82415,0.79363l-2.0146,1.8925c-0.39342,-0.40699 -0.83433,-0.73597 -1.32272,-0.98695c-0.48839,-0.25098 -1.07852,-0.37647 -1.7704,-0.37647c-0.58335,0 -1.07174,0.11531 -1.46516,0.34594c-0.39342,0.23063 -0.59013,0.50195 -0.59013,0.81398c0,0.31203 0.10514,0.55622 0.31542,0.73258c0.21028,0.17636 0.51891,0.33916 0.9259,0.48839c0.32559,0.1221 0.6851,0.24419 1.07852,0.36629c0.39342,0.1221 0.79024,0.24419 1.19044,0.36629c0.40021,0.1221 0.79024,0.25437 1.17009,0.39681c0.37986,0.14245 0.73258,0.29507 1.05817,0.45786c0.70545,0.35272 1.20062,0.79702 1.48551,1.33289c0.28489,0.53587 0.42734,1.21758 0.42734,2.04512c0,0.82755 -0.1628,1.51943 -0.48839,2.07565c-0.32559,0.55622 -0.74954,1.00391 -1.27184,1.34306c-0.5223,0.33916 -1.10226,0.58335 -1.73988,0.73258c-0.63762,0.14923 -1.26167,0.22384 -1.87215,0.22384c-1.51943,0 -2.74718,-0.20689 -3.68325,-0.62066c-0.93608,-0.41377 -1.66187,-0.98695 -2.17739,-1.71953c0.35272,-0.31203 0.69527,-0.61388 1.02765,-0.90555c0.33237,-0.29168 0.66814,-0.59353 1.0073,-0.90555c0.42056,0.43412 0.93608,0.80041 1.54656,1.09887c0.61048,0.29846 1.36341,0.44769 2.25879,0.44769c0.81398,0 1.46855,-0.13905 1.96372,-0.41716c0.49517,-0.27811 0.74276,-0.66136 0.74276,-1.14975c0,-0.33916 -0.09836,-0.62744 -0.29507,-0.86485c-0.19671,-0.23741 -0.45108,-0.43751 -0.76311,-0.60031c-0.31203,-0.1628 -0.66814,-0.30524 -1.06835,-0.42734c-0.40021,-0.1221 -0.8072,-0.23741 -1.22097,-0.34594c-0.41377,-0.10853 -0.81398,-0.22045 -1.20062,-0.33577c-0.38664,-0.11531 -0.72919,-0.26115 -1.02765,-0.43751c-0.70545,-0.40699 -1.22097,-0.86824 -1.54656,-1.38376c-0.32559,-0.51552 -0.48839,-1.19384 -0.48839,-2.03495c0,-0.52909 0.10853,-1.02087 0.32559,-1.47534c0.21706,-0.45447 0.53248,-0.85468 0.94625,-1.20062c0.41377,-0.34594 0.92251,-0.61727 1.52621,-0.81398c0.6037,-0.19671 1.29219,-0.29507 2.06547,-0.29507z" data-paper-data="{&quot;glyphName&quot;:&quot;S&quot;,&quot;glyphIndex&quot;:13,&quot;lastGlyphOfWord&quot;:true,&quot;word&quot;:4}"></path></g><g data-paper-data="{&quot;isPrimaryText&quot;:true}" fill="#d14124" fill-rule="nonzero"><path d="M188.488,304.99035v-2.79861c0,-18.89061 -7.41631,-25.88713 -21.75918,-25.88713h-15.32238v54.57287h15.32238c14.34287,0 21.75918,-6.99652 21.75918,-25.88713zM158.68282,324.44068v-41.69927h7.55624c10.07499,0 14.76266,5.59722 14.76266,19.45033v2.79861c0,13.85311 -4.68767,19.45033 -14.76266,19.45033z" data-paper-data="{&quot;glyphName&quot;:&quot;D&quot;,&quot;glyphIndex&quot;:0,&quot;firstGlyphOfWord&quot;:true,&quot;word&quot;:1}"></path><path d="M233.9654,276.30461h-6.92656v29.59529l0.27986,12.10398l-22.87863,-41.69927h-7.76614v54.57287h6.92656v-29.59529l-0.27986,-12.10398l22.87863,41.69927h7.76614z" data-paper-data="{&quot;glyphName&quot;:&quot;N&quot;,&quot;glyphIndex&quot;:1,&quot;word&quot;:1}"></path><path d="M258.87302,306.10979c8.95555,1.18941 12.17395,4.05798 12.17395,9.58524v0.55972c0,5.52725 -4.12795,9.02551 -10.70468,9.02551h-0.55972c-6.57673,0 -10.98454,-3.84809 -10.98454,-12.52377h-7.27638v0.69965c0,11.96405 6.4368,18.26092 18.54078,18.26092c11.54426,0 18.47082,-5.87708 18.47082,-15.81214v-0.76962c0,-8.95555 -5.31736,-13.50329 -17.21144,-15.11249c-9.23541,-1.25937 -11.75416,-4.26788 -11.75416,-9.37534v-0.55972c0,-4.96753 4.12795,-8.18593 10.07499,-8.18593h0.48976c7.48628,0 10.56475,3.98802 10.56475,13.22343h7.27638v-1.67917c0,-11.82412 -5.38732,-17.98106 -17.9111,-17.98106c-11.12447,0 -17.98106,5.87708 -17.98106,15.18245v0.76962c0,8.11597 4.89757,13.0835 16.79165,14.6927z" data-paper-data="{&quot;glyphName&quot;:&quot;S&quot;,&quot;glyphIndex&quot;:2,&quot;word&quot;:1}"></path><path d="M327.57886,288.96831l-0.27986,11.68419v30.22498h7.27638v-54.57287h-10.56475l-13.71318,41.97913l-13.64322,-41.97913h-10.56475v54.57287h7.27638v-30.22498l-0.27986,-11.68419l13.71318,41.90917h7.06649z" data-paper-data="{&quot;glyphName&quot;:&quot;M&quot;,&quot;glyphIndex&quot;:3,&quot;word&quot;:1}"></path><path d="M351.57694,276.30461h-7.27638v54.57287h7.27638z" data-paper-data="{&quot;glyphName&quot;:&quot;I&quot;,&quot;glyphIndex&quot;:4,&quot;word&quot;:1}"></path><path d="M398.59357,276.30461h-6.92656v29.59529l0.27986,12.10398l-22.87863,-41.69927h-7.76614v54.57287h6.92656v-29.59529l-0.27986,-12.10398l22.87863,41.69927h7.76614z" data-paper-data="{&quot;glyphName&quot;:&quot;N&quot;,&quot;glyphIndex&quot;:5,&quot;lastGlyphOfWord&quot;:true,&quot;word&quot;:1}"></path></g><g data-paper-data="{&quot;isIcon&quot;:&quot;true&quot;,&quot;iconType&quot;:&quot;icon&quot;,&quot;rawIconId&quot;:&quot;jRYz7DX63pF8LZWog58IRqrEDHlFv2sfkkjVJdPj4Y&quot;,&quot;source&quot;:&quot;ai&quot;,&quot;selectedEffects&quot;:{&quot;container&quot;:&quot;&quot;,&quot;transformation&quot;:&quot;&quot;,&quot;pattern&quot;:&quot;&quot;},&quot;isDetailed&quot;:false,&quot;iconStyle&quot;:&quot;standalone&quot;,&quot;bounds&quot;:{&quot;x&quot;:216.01947214159858,&quot;y&quot;:115.00000000000001,&quot;width&quot;:117.96105571680292,&quot;height&quot;:132.1976358934096},&quot;fillRule&quot;:&quot;evenodd&quot;,&quot;suitableAsStandaloneIcon&quot;:true}" fill-rule="evenodd"><g data-paper-data="{&quot;isPathIcon&quot;:true}"><path d="M219.46246,115.14827c-1.30199,0.326 -2.32299,1.12199 -2.90699,2.26699c-0.502,0.984 -0.536,1.69699 -0.536,11.36695c0,10.24395 0.005,10.32295 0.621,11.22895c0.342,0.501 0.972,1.17099 1.39999,1.48899c0.74,0.547 1.11699,0.577 7.31196,0.577c7.36296,0 7.72996,-0.086 8.85096,-2.08199c0.485,-0.863 0.578,-1.49599 0.578,-3.94098c0,-2.62599 0.061,-2.98299 0.621,-3.62498l0.621,-0.712l17.79591,-0.038c15.62092,-0.034 18.16691,0.02 20.8309,0.438c6.25497,0.981 10.95795,2.48399 16.21992,5.18497c18.02291,9.24996 28.33686,28.60186 26.11487,48.99976c-1.32999,12.20894 -6.10397,22.06189 -14.67893,30.29385c-7.79096,7.47796 -16.61192,11.78294 -27.71087,13.52393c-2.49999,0.391 -5.81597,0.486 -20.5689,0.585l-17.58892,0.119l-0.828,-0.828l-0.828,-0.828v-12.26194c0,-11.99794 0.013,-12.27694 0.574,-12.99094l0.573,-0.729l17.14992,0.071l17.14992,0.071l0.319,0.69c0.604,1.30099 0.179,2.37599 -1.31399,3.33498c-3.08899,1.98199 -4.50798,4.74098 -4.31498,8.39096c0.144,2.73299 1.09499,4.83998 2.98099,6.60397c1.62299,1.51799 3.11298,2.28399 4.99898,2.57199c4.21798,0.643 8.07896,-1.41999 10.20195,-5.45097c0.568,-1.07799 0.654,-1.62399 0.654,-4.13898c0,-2.68699 -0.058,-3.00199 -0.808,-4.35598c-0.777,-1.40299 -1.96299,-2.63599 -4.11398,-4.27798l-1.009,-0.77v-3.30798c0,-3.81698 -0.329,-4.92498 -1.70799,-5.76597c-0.865,-0.528 -1.37399,-0.557 -9.52495,-0.558c-8.50296,-0.001 -8.61796,-0.009 -9.17396,-0.605c-0.53,-0.569 -0.562,-0.947 -0.562,-6.62197c0,-5.64997 0.033,-6.05097 0.551,-6.56997c0.54,-0.539 0.92,-0.551 17.45892,-0.551h1.39099c13.92493,-0.001 16.27692,-0.001 16.66692,0.873c0.08,0.179 0.078,0.392 0.076,0.65c0,0.041 -0.001,0.084 -0.001,0.127c0,0.651 -0.358,1.08199 -1.99999,2.41199c-1.56599,1.26799 -2.20099,2.01399 -2.92599,3.43198c-3.31498,6.48797 1.25999,14.02693 8.51296,14.02693c6.48997,0 11.06995,-6.17797 9.21396,-12.42694c-0.623,-2.09799 -1.77299,-3.63398 -3.81298,-5.08898c-0.967,-0.69 -1.83299,-1.44899 -1.92399,-1.68699c-0.091,-0.238 -0.166,-1.79399 -0.166,-3.45798c0,-3.23698 -0.287,-4.24398 -1.43899,-5.05098c-0.528,-0.37 -1.93299,-0.431 -9.89695,-0.431c-8.97296,0 -9.30696,-0.019 -10.00995,-0.572l-0.726,-0.572v-17.12092l-0.939,-0.938l-0.938,-0.938h-20.0299c-2.02299,0 -3.85398,0.002 -5.51097,0.004c-12.27794,0.017 -15.01293,0.02 -15.55592,-1.06899c-0.156,-0.312 -0.131,-0.714 -0.1,-1.23099c0.015,-0.243 0.032,-0.512 0.032,-0.808c-0.001,-2.36899 -0.528,-3.62798 -1.90299,-4.54698c-0.907,-0.606 -1.14599,-0.626 -7.26996,-0.626c-7.02297,0 -7.67296,0.129 -8.83496,1.75799c-0.59,0.826 -0.619,1.14099 -0.693,7.48396c-0.087,7.40896 0.015,7.90796 1.87099,9.17396c0.88,0.601 1.11699,0.621 7.52696,0.621c6.17797,0 6.67697,-0.037 7.52696,-0.563c0.597,-0.368 1.07499,-0.992 1.38599,-1.80599c0.261,-0.684 0.696,-1.36199 0.966,-1.50699c0.297,-0.158 7.34296,-0.263 17.75391,-0.263c16.89392,0 17.27392,0.012 17.81391,0.552c0.515,0.516 0.552,0.92 0.552,6.18797v5.63597l-0.727,0.572c-0.7,0.551 -1.04499,0.572 -9.25696,0.572c-9.21196,0 -9.58695,0.053 -10.53095,1.49399c-0.398,0.608 -0.454,1.78699 -0.454,9.53295c0,8.47096 -0.023,8.86096 -0.552,9.38995c-0.524,0.524 -0.92,0.552 -7.88996,0.552c-7.16797,0 -7.35796,-0.014 -8.20796,-0.621c-0.848,-0.605 -1.04999,-0.621 -7.95496,-0.621c-6.72497,0 -7.12297,0.029 -7.84596,0.569c-0.419,0.313 -1.018,0.912 -1.33099,1.33099c-0.562,0.753 -0.569,1.02 -0.642,23.79689c-0.005,1.41899 -0.009,2.75499 -0.014,4.01298c-0.062,17.80391 -0.069,20.0909 1.06099,21.0869c0.246,0.218 0.546,0.373 0.912,0.615l1.10899,0.735h25.54188c27.22987,0 28.85886,-0.064 35.47383,-1.38599c8.76796,-1.75199 17.48892,-5.24797 24.34388,-9.75795c7.08797,-4.66398 14.32293,-11.85394 18.63191,-18.51591c5.61597,-8.68396 8.83596,-17.24692 10.32195,-27.45287c0.686,-4.70798 0.686,-14.82493 0.001,-19.16591c-1.94599,-12.32694 -7.24397,-23.79189 -15.31393,-33.13784c-10.55495,-12.22594 -24.53988,-19.62691 -41.9898,-22.22389c-2.78799,-0.415 -6.33597,-0.48 -29.51786,-0.545c-14.49193,-0.04 -26.72387,0.021 -27.18287,0.136z" fill="#d14124"></path><path d="M216.46747,173.22199c0.466,-0.981 1.49999,-1.87299 2.44899,-2.10999c0.304,-0.076 3.28398,-0.153 6.62197,-0.17c6.80797,-0.036 7.43396,0.1 8.61696,1.87099c0.607,0.908 0.626,1.13799 0.626,7.44896c-0.001,7.28896 -0.123,7.86896 -1.90299,9.05896c-0.909,0.607 -1.13799,0.626 -7.47796,0.626c-6.33997,0 -6.56897,-0.019 -7.47696,-0.626c-1.77199,-1.18399 -1.90299,-1.79199 -1.90299,-8.85096c-0.001,-5.24597 0.075,-6.46297 0.447,-7.24797z" fill="#004b87"></path></g></g></g></g></svg>