<?xml version="1.0" encoding="UTF-8" standalone="no"?>
<svg
   svg:contrastcolor="e6edf3"
   svg:template="Contrast"
   svg:presentation="2.5"
   svg:layouttype="undefined"
   svg:specialfontid="undefined"
   svg:id1="191"
   svg:id2="121"
   svg:companyname="DNSMin"
   svg:companytagline="Built for Big DNS"
   version="1.1"
   viewBox="0 30 499.99984 499.99984"
   id="svg25"
   sodipodi:docname="logo1-light-icon.svg"
   inkscape:version="1.3.2 (091e20e, 2023-11-25)"
   width="500"
   height="500"
   inkscape:export-filename="logo1-light-icon.png"
   inkscape:export-xdpi="96"
   inkscape:export-ydpi="96"
   xmlns:inkscape="http://www.inkscape.org/namespaces/inkscape"
   xmlns:sodipodi="http://sodipodi.sourceforge.net/DTD/sodipodi-0.dtd"
   xmlns="http://www.w3.org/2000/svg"
   xmlns:svg="http://www.w3.org/2000/svg">
  <defs
     id="defs25" />
  <sodipodi:namedview
     id="namedview25"
     pagecolor="#ffffff"
     bordercolor="#000000"
     borderopacity="0.25"
     inkscape:showpageshadow="2"
     inkscape:pageopacity="0.0"
     inkscape:pagecheckerboard="0"
     inkscape:deskcolor="#d1d1d1"
     inkscape:zoom="0.57560976"
     inkscape:cx="-13.898305"
     inkscape:cy="-72.966101"
     inkscape:window-width="1696"
     inkscape:window-height="867"
     inkscape:window-x="0"
     inkscape:window-y="25"
     inkscape:window-maximized="0"
     inkscape:current-layer="g22" />
  <g
     fill="none"
     fill-rule="none"
     stroke="none"
     stroke-width="1"
     stroke-linecap="butt"
     stroke-linejoin="miter"
     stroke-miterlimit="10"
     stroke-dasharray="none"
     stroke-dashoffset="0"
     font-family="none"
     font-weight="none"
     font-size="none"
     text-anchor="none"
     style="mix-blend-mode:normal"
     id="g25"
     transform="translate(-216.01947,-138.90118)">
    <g
       data-paper-data="{&quot;isGlobalGroup&quot;:true,&quot;bounds&quot;:{&quot;x&quot;:151.40643449892457,&quot;y&quot;:115.00000000000001,&quot;width&quot;:247.18713100215086,&quot;height&quot;:240}}"
       id="g24">
      <g
         data-paper-data="{&quot;isIcon&quot;:&quot;true&quot;,&quot;iconType&quot;:&quot;icon&quot;,&quot;rawIconId&quot;:&quot;jRYz7DX63pF8LZWog58IRqrEDHlFv2sfkkjVJdPj4Y&quot;,&quot;source&quot;:&quot;ai&quot;,&quot;selectedEffects&quot;:{&quot;container&quot;:&quot;&quot;,&quot;transformation&quot;:&quot;&quot;,&quot;pattern&quot;:&quot;&quot;},&quot;isDetailed&quot;:false,&quot;iconStyle&quot;:&quot;standalone&quot;,&quot;bounds&quot;:{&quot;x&quot;:216.01947214159858,&quot;y&quot;:115.00000000000001,&quot;width&quot;:117.96105571680292,&quot;height&quot;:132.1976358934096},&quot;fillRule&quot;:&quot;evenodd&quot;,&quot;suitableAsStandaloneIcon&quot;:true}"
         fill-rule="evenodd"
         id="g23"
         transform="translate(0,53.901217)">
        <g
           data-paper-data="{&quot;isPathIcon&quot;:true}"
           id="g22">
          <g
             id="g1"
             transform="translate(191.01955,183.90118)">
            <path
               d="m 63.134375,-43.396391 c -4.966856,1.109702 -8.861786,3.819247 -11.08964,7.716821 -1.915039,3.34953 -2.044742,5.776544 -2.044742,38.6930337 0,34.8703483 0.01907,35.1392633 2.369002,38.2232823 1.304668,1.705401 3.708004,3.986043 5.340708,5.068514 2.822966,1.861985 4.261114,1.964104 27.893802,1.964104 28.088355,0 29.488395,-0.292743 33.764805,-7.087082 1.85019,-2.937647 2.20497,-5.092341 2.20497,-13.415073 0,-8.938856 0.2327,-10.154082 2.369,-12.339412 l 2.369,-2.423644 67.88817,-0.129352 c 59.59098,-0.115736 69.30347,0.06808 79.46611,1.49095 23.86158,3.339318 41.80259,8.455488 61.87605,17.649608 68.75414,31.486812 108.09999,97.360571 99.6235,166.794911 -5.07367,41.55916 -23.28554,75.09855 -55.99746,103.12009 -29.7211,25.45493 -63.37146,40.10906 -105.71194,46.03538 -9.53701,1.33096 -22.18687,1.65434 -78.46663,1.99134 l -67.09854,0.40507 -3.15867,-2.8185 -3.15867,-2.81851 v -41.73958 c 0,-40.84092 0.0496,-41.79063 2.18971,-44.22108 l 2.18589,-2.48151 65.42383,0.24168 65.42384,0.24168 1.21693,2.34876 c 2.30415,4.42856 0.68285,8.08786 -5.01264,11.35225 -11.78393,6.74669 -17.19712,16.13827 -16.46086,28.56278 0.54933,9.30309 4.17718,16.47527 11.37193,22.47988 6.19142,5.16723 11.87546,7.77469 19.07021,8.75504 16.09082,2.18877 30.81976,-4.83364 38.91858,-18.55507 2.16682,-3.66947 2.4949,-5.52805 2.4949,-14.08907 0,-9.1465 -0.22126,-10.21875 -3.08238,-14.82773 -2.96411,-4.77577 -7.48845,-8.97289 -15.69409,-14.56222 l -3.84915,-2.62107 v -11.26035 c 0,-12.99298 -1.25507,-16.7646 -6.51567,-19.62733 -3.29982,-1.79731 -5.24152,-1.89602 -36.33596,-1.89943 -32.43725,-0.003 -32.87595,-0.0306 -34.99699,-2.05941 -2.02185,-1.93688 -2.14393,-3.22359 -2.14393,-22.54115 0,-19.23247 0.12589,-20.59747 2.10197,-22.36414 2.06,-1.83476 3.50963,-1.8756 66.60261,-1.8756 h 5.30638 c 53.12108,-0.003 62.09349,-0.003 63.58127,2.97168 0.30519,0.60932 0.29756,1.33437 0.28993,2.2126 0,0.13956 -0.004,0.28594 -0.004,0.43231 0,2.216 -1.3657,3.68309 -7.62959,8.2104 -5.97397,4.31623 -8.39638,6.85561 -11.16213,11.68244 -12.64604,22.08501 4.80664,47.74759 32.4754,47.74759 24.75806,0 42.22986,-21.02978 35.14959,-42.30123 -2.37663,-7.14155 -6.76364,-12.37005 -14.54583,-17.32286 -3.68893,-2.34876 -6.99252,-4.93236 -7.33967,-5.74251 -0.34715,-0.81015 -0.63326,-6.10673 -0.63326,-11.77094 0,-11.01866 -1.09485,-14.44649 -5.48949,-17.19351 -2.01422,-1.25948 -7.374,-1.46712 -37.75507,-1.46712 -34.23021,0 -35.50436,-0.0647 -38.18614,-1.94709 l -2.76956,-1.94708 V 99.267633 l -3.58211,-3.192946 -3.5783,-3.192947 h -76.41044 c -7.71734,0 -14.70224,0.0068 -21.02335,0.01362 -46.83812,0.05787 -57.27161,0.06808 -59.34302,-3.638836 -0.59511,-1.062046 -0.49974,-2.430452 -0.38148,-4.190283 0.0572,-0.827171 0.12208,-1.742845 0.12208,-2.750427 -0.004,-8.064029 -2.01423,-12.349624 -7.25957,-15.477895 -3.46004,-2.06282 -4.37174,-2.1309 -27.733575,-2.1309 -26.791358,0 -29.270952,0.439115 -33.703771,5.984188 -2.250743,2.811699 -2.361373,3.883923 -2.643669,25.475358 -0.33189,25.220055 0.05722,26.918645 7.137487,31.228105 3.357041,2.0458 4.261115,2.11388 28.713988,2.11388 23.56784,0 25.47143,-0.12595 28.71399,-1.91645 2.27744,-1.25267 4.10089,-3.37676 5.2873,-6.14758 0.99567,-2.32833 2.65511,-4.63621 3.68511,-5.12978 1.133,-0.53784 28.01206,-0.89526 67.72795,-0.89526 64.44724,0 65.89687,0.0409 67.95684,1.87901 1.96463,1.75646 2.10578,3.13167 2.10578,21.06381 v 19.18481 l -2.77338,1.94709 c -2.67037,1.8756 -3.98644,1.94708 -35.31362,1.94708 -35.14196,0 -36.57248,0.18042 -40.17366,5.08554 -1.5183,2.06963 -1.73193,6.0829 -1.73193,32.45011 0,28.8351 -0.0877,30.16265 -2.10578,31.96333 -1.99897,1.7837 -3.50964,1.87901 -30.09877,1.87901 -27.3445,0 -28.06928,-0.0477 -31.31188,-2.11388 -3.23496,-2.05942 -4.00552,-2.11388 -30.346728,-2.11388 -25.654542,0 -27.172839,0.0987 -29.930915,1.93687 -1.598409,1.06545 -3.883486,3.10444 -5.077486,4.53068 -2.143928,2.56321 -2.170632,3.47208 -2.449113,81.00448 -0.01907,4.83023 -0.03433,9.37797 -0.05341,13.66016 -0.236519,60.60441 -0.263222,68.38931 4.047485,71.77969 0.938445,0.74207 2.082891,1.26969 3.479114,2.09346 l 4.230596,2.50193 h 97.437647 c 103.87701,0 110.09132,-0.21785 135.32623,-4.7179 33.44817,-5.96376 66.71706,-17.86406 92.86748,-33.21601 27.03933,-15.87616 54.63939,-40.35074 71.07736,-63.02805 21.42391,-29.56015 33.70759,-58.70842 39.37637,-93.44941 2.61697,-16.02594 2.61697,-50.46398 0.004,-65.24065 -7.4236,-41.96084 -27.63444,-80.987458 -58.41987,-112.801019 -40.26522,-41.6170312 -93.61519,-66.809891 -160.18347,-75.649997 -10.63568,-1.412657 -24.17058,-1.633917 -112.60529,-1.855176 -55.28408,-0.13616 -101.94672,0.07148 -103.697721,0.462943 z"
               fill="#d14124"
               id="path21"
               style="stroke-width:3.60356" />
            <path
               d="m 51.709031,154.28622 c 1.777706,-3.33931 5.72219,-6.37564 9.342453,-7.18239 1.159705,-0.2587 12.527788,-0.52081 25.261615,-0.57868 25.971171,-0.12254 28.359211,0.3404 32.872141,6.36884 2.31559,3.09083 2.38808,3.87371 2.38808,25.35622 -0.004,24.81158 -0.46923,26.78589 -7.25957,30.83665 -3.46767,2.06622 -4.34122,2.1309 -28.527058,2.1309 -24.185836,0 -25.059429,-0.0647 -28.523247,-2.1309 -6.75982,-4.0303 -7.259561,-6.09993 -7.259561,-30.12862 -0.0038,-17.85725 0.286111,-21.99991 1.705224,-24.67205 z"
               fill="#004b87"
               id="path22"
               style="fill:#b3b3b3;stroke-width:3.60356" />
          </g>
        </g>
      </g>
    </g>
  </g>
</svg>
